:SAMPLES-PER-SECOND 30
:FULLY-SPECIFIED
:DEGREES
62
root  67.0018 39.2392 -5.12436 -132.972 -83.5984 131.004
RightUpLeg  -2.66938 -1.76869 -10.9528
RightLeg  50.7918 -2.1427 -3.16138
RightFoot  7.69869 -1.62405 9.90409
RightToes  -1.16417e-010 0 -3.6325e-017
Spine  5.03255 1.4622 -0.193721
Spine1  9.44608 2.83412 -5.3754
HEad  -12.5457 5.29064 -5.78609
LeftShoulder1  9.17706 -12.668 -49.5405
LeftArm  -7.91621 22.7275 -26.3709
LeftForeArm  29.0047 -7.10751 -5.65364
LeftHand  -0.244104 0.0205437 5.32207
RightShoulder  7.05569 10.5964 43.6423
RightArm  4.02873 -5.9713 33.4434
RightForeArm  1.39736 12.2514 8.44552
RightHand  -0.770607 0.582994 -15.0271
LeftUpLeg  -12.2956 11.4223 -8.16072
LeftLeg  16.1413 11.5414 0.780359
LeftFoot  -4.30597 -0.312629 5.5059
LeftToes  -1.16419e-010 -9.34044e-011 -2.32061e-011
63
root  66.0376 39.4875 -4.98601 -138.359 -83.9644 136.026
RightUpLeg  -7.91443 -0.58668 -9.89955
RightLeg  56.878 -1.95588 -3.67014
RightFoot  8.03739 -1.42927 8.67153
RightToes  -1.16417e-010 0 -3.6325e-017
Spine  5.37706 0.845382 -1.06275
Spine1  9.60575 1.71791 -3.74719
HEad  -12.211 6.20895 -6.61493
LeftShoulder1  9.19796 -12.5928 -49.8831
LeftArm  -7.60305 20.5745 -26.2626
LeftForeArm  28.9595 -9.67595 -5.81091
LeftHand  -0.244104 0.0205437 5.32207
RightShoulder  7.27309 10.9035 44.05
RightArm  5.24817 -7.56968 32.703
RightForeArm  6.39435 11.3211 8.65938
RightHand  -0.667812 0.147478 -14.0514
LeftUpLeg  -9.13657 9.30524 -6.57161
LeftLeg  14.3193 13.8349 -0.591149
LeftFoot  -5.12314 -0.25902 5.33093
LeftToes  -1.16419e-010 -9.34044e-011 -2.32061e-011
64
root  65.0774 39.7149 -4.83333 -144.342 -84.863 141.715
RightUpLeg  -12.4671 -0.551979 -8.59083
RightLeg  59.8128 -1.98526 -4.18578
RightFoot  6.1878 -1.24605 8.34261
RightToes  -1.16417e-010 0 -3.6325e-017
Spine  5.89023 0.0986678 -1.0702
Spine1  9.55514 0.617603 -2.61172
HEad  -12.152 6.83869 -7.04673
LeftShoulder1  9.20685 -12.5477 -50.0699
LeftArm  -6.39723 17.4837 -25.9053
LeftForeArm  28.2092 -11.5723 -5.86729
LeftHand  -0.244104 0.0205437 5.32207
RightShoulder  7.32517 10.9544 44.2166
RightArm  6.49464 -9.68698 32.1925
RightForeArm  10.1498 11.5971 8.45947
RightHand  -0.67183 0.430845 -13.4659
LeftUpLeg  -6.0404 7.14123 -5.06723
LeftLeg  12.2565 15.5637 -1.82084
LeftFoot  -6.08257 -0.189354 4.91557
LeftToes  -1.16419e-010 -9.34044e-011 -2.32061e-011
65
root  64.0969 39.8505 -4.68959 -151.117 -85.7183 148.209
RightUpLeg  -16.4355 -0.932001 -7.24941
RightLeg  59.891 -2.3333 -4.83975
RightFoot  4.94036 -1.00739 7.26739
RightToes  -1.16417e-010 0 -3.6325e-017
Spine  6.47736 -0.453933 -0.921096
Spine1  9.3192 -0.208381 -1.8534
HEad  -12.1668 6.80602 -6.94923
LeftShoulder1  9.15937 -12.517 -49.9078
LeftArm  -5.29433 13.8543 -25.6681
LeftForeArm  27.4638 -12.8412 -5.83427
LeftHand  -0.244104 0.0205437 5.32207
RightShoulder  7.18948 10.7541 43.9964
RightArm  6.85348 -12.1802 32.0018
RightForeArm  10.9717 12.007 8.27284
RightHand  -0.73382 0.980514 -13.4675
LeftUpLeg  -3.2835 5.6319 -3.97021
LeftLeg  10.7205 16.5819 -2.70256
LeftFoot  -7.10656 -0.123386 4.49626
LeftToes  -1.16419e-010 -9.34044e-011 -2.32061e-011
66
root  63.0999 39.9149 -4.56636 -156.99 -86.4258 153.748
RightUpLeg  -19.5748 -1.52591 -5.9918
RightLeg  57.2198 -2.96494 -5.39361
RightFoot  4.03815 -0.734971 5.64209
RightToes  -1.16417e-010 0 -3.6325e-017
Spine  7.15064 -0.905876 -1.11091
Spine1  9.06591 -0.954229 -1.01828
HEad  -12.2147 6.48972 -6.41395
LeftShoulder1  9.06186 -12.4563 -49.5659
LeftArm  -4.59829 10.0563 -25.5833
LeftForeArm  26.5962 -14.0485 -5.64382
LeftHand  -0.244104 0.0205437 5.32207
RightShoulder  7.0523 10.5761 43.6881
RightArm  5.93844 -14.4456 31.8323
RightForeArm  10.1568 11.953 8.21412
RightHand  -0.755451 1.11216 -13.5915
LeftUpLeg  -0.827983 5.0226 -3.29975
LeftLeg  9.85336 16.6902 -3.19106
LeftFoot  -8.13888 -0.0703737 4.27643
LeftToes  -1.16419e-010 -9.34044e-011 -2.32061e-011
67
root  62.1129 39.9157 -4.46116 -161.409 -87.0443 157.819
RightUpLeg  -21.6598 -2.45543 -4.91095
RightLeg  51.6875 -3.62521 -5.28512
RightFoot  2.71268 -0.637938 5.33607
RightToes  -1.16417e-010 0 -3.6325e-017
Spine  8.02685 -1.32513 -1.54258
Spine1  8.7686 -1.68463 -0.13994
HEad  -12.3481 6.40473 -5.80091
LeftShoulder1  9.01355 -12.4365 -49.3632
LeftArm  -4.08211 6.14809 -25.3277
LeftForeArm  25.4932 -15.2905 -5.36268
LeftHand  -0.244104 0.0205437 5.32207
RightShoulder  6.99162 10.5191 43.4769
RightArm  3.98434 -16.1787 31.5549
RightForeArm  9.73116 11.5272 8.11931
RightHand  -0.700111 0.660791 -13.5108
LeftUpLeg  1.32352 4.96078 -2.88082
LeftLeg  9.62489 16.1375 -3.35828
LeftFoot  -9.4646 -0.0109758 4.13852
LeftToes  -1.16419e-010 -9.34044e-011 -2.32061e-011
68
root  61.1086 39.8376 -4.37743 -163.301 -87.5084 159.458
RightUpLeg  -22.6814 -3.77801 -3.96601
RightLeg  43.5149 -3.95918 -4.32056
RightFoot  1.60676 -0.683862 6.11256
RightToes  -1.16417e-010 0 -3.6325e-017
Spine  8.87083 -1.61934 -2.15874
Spine1  8.43287 -2.26819 0.670585
HEad  -12.623 6.54343 -5.41159
LeftShoulder1  9.05146 -12.5124 -49.3363
LeftArm  -3.64573 2.21423 -24.8421
LeftForeArm  24.4637 -16.4049 -5.09127
LeftHand  -0.244104 0.0205437 5.32207
RightShoulder  6.88542 10.3715 43.2597
RightArm  1.50719 -17.2035 31.3592
RightForeArm  10.6359 10.5647 7.99546
RightHand  -0.666854 0.380672 -13.4769
LeftUpLeg  3.20109 5.17071 -2.62818
LeftLeg  9.88851 15.3422 -3.38991
LeftFoot  -11.1829 0.0615708 3.78628
LeftToes  -1.16419e-010 -9.34044e-011 -2.32061e-011
69
root  60.0355 39.7187 -4.31808 -159.766 -87.8723 155.829
RightUpLeg  -22.7623 -5.67581 -2.92316
RightLeg  33.4592 -3.66358 -2.85844
RightFoot  1.22673 -0.668095 6.13601
RightToes  -1.16417e-010 0 -3.6325e-017
Spine  9.33512 -1.81097 -3.00953
Spine1  8.20872 -2.74551 1.59705
HEad  -12.9715 6.58124 -5.18493
LeftShoulder1  9.08865 -12.6133 -49.2297
LeftArm  -3.39282 -1.37193 -24.4308
LeftForeArm  23.7015 -17.4928 -4.79317
LeftHand  -0.244104 0.0205437 5.32207
RightShoulder  6.68047 10.0383 42.9898
RightArm  -0.947417 -17.4365 31.3617
RightForeArm  12.6156 8.75492 7.86542
RightHand  -0.741125 0.865876 -13.8344
LeftUpLeg  5.06177 5.48011 -2.522
LeftLeg  10.0917 14.5649 -3.51165
LeftFoot  -12.8231 0.119637 3.27417
LeftToes  -1.16419e-010 -9.34044e-011 -2.32061e-011
70
root  58.8856 39.5903 -4.27196 -147.805 -88.2549 143.874
RightUpLeg  -22.1943 -8.99377 -1.46837
RightLeg  22.72 -2.08049 -1.3001
RightFoot  1.26858 -0.617827 5.66468
RightToes  -1.16417e-010 0 -3.6325e-017
Spine  9.51638 -2.03841 -3.86012
Spine1  8.05617 -3.24916 2.56527
HEad  -13.1892 6.42142 -4.92169
LeftShoulder1  9.06868 -12.6833 -48.9089
LeftArm  -3.2096 -4.28715 -24.2795
LeftForeArm  23.0175 -18.7031 -4.45549
LeftHand  -0.244104 0.0205437 5.32207
RightShoulder  6.51926 9.76913 42.7919
RightArm  -2.6197 -17.3361 31.3934
RightForeArm  14.1785 6.77409 7.58173
RightHand  -0.818842 1.29455 -14.3307
LeftUpLeg  7.04263 5.68466 -2.55494
LeftLeg  10.0665 13.839 -3.66667
LeftFoot  -14.1859 0.158526 2.93386
LeftToes  -1.16419e-010 -9.34044e-011 -2.32061e-011
71
root  57.6623 39.4144 -4.22379 -126.582 -88.5763 122.608
RightUpLeg  -21.192 -12.2269 -0.329854
RightLeg  13.0055 -0.963813 0.486499
RightFoot  1.35998 -0.651025 5.9282
RightToes  -1.16417e-010 0 -3.6325e-017
Spine  9.68437 -2.33058 -4.30347
Spine1  7.82039 -3.71958 3.19784
HEad  -13.2338 6.24105 -4.70635
LeftShoulder1  9.04724 -12.7717 -48.5268
LeftArm  -2.75182 -6.5744 -24.3114
LeftForeArm  22.2794 -19.9698 -4.16567
LeftHand  -0.244104 0.0205437 5.32207
RightShoulder  6.52872 9.80379 42.7387
RightArm  -3.39208 -17.5356 31.1841
RightForeArm  14.2708 5.80361 7.28925
RightHand  -0.745118 0.644305 -14.401
LeftUpLeg  9.13092 5.79269 -2.60371
LeftLeg  10.1927 12.9762 -3.69904
LeftFoot  -15.7891 0.195238 2.60076
LeftToes  -1.16419e-010 -9.34044e-011 -2.32061e-011
72
root  56.3596 39.176 -4.17914 -98.4883 -88.7481 94.3742
RightUpLeg  -19.5932 -9.25255 -1.80531
RightLeg  6.03617 -6.2187 3.22808
RightFoot  1.07539 -0.685673 6.36138
RightToes  -1.16417e-010 0 -3.6325e-017
Spine  9.7455 -2.61251 -4.31059
Spine1  7.73023 -4.11699 3.65927
HEad  -13.3975 6.18898 -4.77748
LeftShoulder1  9.0666 -12.9003 -48.2475
LeftArm  -2.00246 -8.38895 -24.4721
LeftForeArm  21.717 -21.2078 -3.96556
LeftHand  -0.244104 0.0205437 5.32207
RightShoulder  6.64241 10.0398 42.7247
RightArm  -3.68358 -17.922 30.7358
RightForeArm  13.3905 5.97482 7.23734
RightHand  -0.602852 -0.442407 -14.1454
LeftUpLeg  11.3835 6.00883 -2.35948
LeftLeg  10.5065 11.7446 -3.69316
LeftFoot  -17.7574 0.203708 1.74997
LeftToes  -1.16419e-010 -9.34044e-011 -2.32061e-011
